<svg data-v-423bf9ae="" xmlns="http://www.w3.org/2000/svg" viewBox="0 0 424 91" class="iconLeft"><!----><!----><!----><g data-v-423bf9ae="" id="62ae3450-8c72-400a-8fc0-a106bc3d4da5" fill="#22255B" transform="matrix(4.531722132721215,0,0,4.531722132721215,116.7345255484667,-0.4984909933238342)"><path d="M7.18 14.06L7.18 11.38L3.40 11.38C3.12 11.38 2.98 11.24 2.98 10.96L2.98 6.51C2.98 6.23 3.12 6.09 3.40 6.09L7.15 6.09L7.15 3.42L2.48 3.42C1.20 3.42 0.56 4.06 0.56 5.36L0.56 12.19C0.56 13.44 1.20 14.06 2.48 14.06ZM10.50 14.06L10.50 8.68C10.50 8.40 10.64 8.26 10.92 8.26L12.71 8.26L12.71 5.84L10.00 5.84C8.67 5.84 8.06 6.50 8.06 7.77L8.06 14.06ZM18.47 11.21C18.47 11.49 18.33 11.63 18.05 11.63L16.27 11.63C15.99 11.63 15.85 11.48 15.85 11.19L15.85 8.69C15.85 8.41 15.99 8.27 16.27 8.27L18.05 8.27C18.33 8.27 18.47 8.41 18.47 8.69ZM18.98 14.06C20.23 14.06 20.86 13.41 20.86 12.14L20.86 7.78C20.86 6.48 20.23 5.84 18.96 5.84L15.34 5.84C14.07 5.84 13.43 6.48 13.43 7.77L13.43 12.19C13.43 13.44 14.08 14.06 15.39 14.06ZM27.57 14.06C28.84 14.06 29.48 13.41 29.48 12.12L29.48 7.71C29.48 6.45 28.83 5.84 27.52 5.84L22.04 5.84L22.04 16.66L24.46 16.66L24.46 14.06ZM27.06 11.20C27.06 11.48 26.92 11.62 26.64 11.62L24.46 11.62L24.46 8.26L26.64 8.26C26.92 8.26 27.06 8.41 27.06 8.71ZM36.18 14.06C37.53 14.06 38.21 13.37 38.21 11.98L38.21 9.49C38.21 8.25 37.59 7.62 36.34 7.62L33.43 7.62C33.15 7.62 33.01 7.48 33.01 7.20L33.01 6.51C33.01 6.23 33.15 6.09 33.43 6.09L37.97 6.09L37.97 3.42L32.48 3.42C31.22 3.42 30.59 4.09 30.59 5.45L30.59 7.98C30.59 9.23 31.25 9.84 32.55 9.84L35.38 9.84C35.66 9.84 35.80 9.98 35.80 10.26L35.80 10.96C35.80 11.24 35.66 11.38 35.38 11.38L30.60 11.38L30.60 14.06ZM45.39 14.06L45.39 11.63L42.17 11.63C41.89 11.63 41.75 11.48 41.75 11.19L41.75 8.69C41.75 8.41 41.89 8.27 42.17 8.27L45.36 8.27L45.36 5.84L41.24 5.84C39.97 5.84 39.33 6.48 39.33 7.77L39.33 12.19C39.33 13.44 39.98 14.06 41.29 14.06ZM51.35 11.21C51.35 11.49 51.21 11.63 50.93 11.63L49.15 11.63C48.87 11.63 48.73 11.48 48.73 11.19L48.73 8.69C48.73 8.41 48.87 8.27 49.15 8.27L50.93 8.27C51.21 8.27 51.35 8.41 51.35 8.69ZM51.87 14.06C53.12 14.06 53.75 13.41 53.75 12.14L53.75 7.78C53.75 6.48 53.12 5.84 51.84 5.84L48.23 5.84C46.96 5.84 46.31 6.48 46.31 7.77L46.31 12.19C46.31 13.44 46.97 14.06 48.27 14.06ZM57.36 14.06L57.36 8.68C57.36 8.40 57.50 8.26 57.78 8.26L59.57 8.26L59.57 5.84L56.85 5.84C55.52 5.84 54.92 6.50 54.92 7.77L54.92 14.06ZM65.31 8.95C65.31 9.13 65.21 9.23 65.03 9.23L62.99 9.23C62.80 9.23 62.71 9.13 62.71 8.95L62.71 8.37C62.71 8.19 62.80 8.09 62.99 8.09L65.03 8.09C65.21 8.09 65.31 8.19 65.31 8.37ZM67.37 14.06L67.37 11.76L63.13 11.76C62.85 11.76 62.71 11.62 62.71 11.34L62.71 10.72C62.83 10.79 62.99 10.82 63.14 10.82L65.93 10.82C67.12 10.82 67.72 10.19 67.72 8.92L67.72 7.71C67.72 6.47 67.12 5.84 65.93 5.84L62.17 5.84C60.91 5.84 60.28 6.48 60.28 7.77L60.28 12.12C60.28 13.41 60.94 14.06 62.24 14.06Z"></path></g><defs data-v-423bf9ae=""><linearGradient data-v-423bf9ae="" gradientTransform="rotate(25)" id="c0133f96-7cf6-4e1e-9c3e-60625de4f25d" x1="0%" y1="0%" x2="100%" y2="0%"><stop data-v-423bf9ae="" offset="0%" style="stop-color: rgb(81, 6, 255); stop-opacity: 1;"></stop><stop data-v-423bf9ae="" offset="100%" style="stop-color: rgb(97, 203, 242); stop-opacity: 1;"></stop></linearGradient></defs><g data-v-423bf9ae="" id="6023d2ec-1534-4a5d-b376-9c83fdce4165" transform="matrix(1.0200604592108724,0,0,1.0200604592108724,-0.6630266991775713,-5.118054400908328)" stroke="none" fill="url(#c0133f96-7cf6-4e1e-9c3e-60625de4f25d)"><path d="M98.66 58.328s-4.217-9.757-24.451-9.387l-18.121.841-5.5-12.867-.081-.168a3.807 3.807 0 0 0-2.007-1.874l-1.949-.782a15.604 15.604 0 0 0 5.067-6.659 15.599 15.599 0 0 0-.135-12.017 15.6 15.6 0 0 0-8.593-8.401c-8.036-3.223-17.196.691-20.418 8.727a15.6 15.6 0 0 0 .133 12.016 15.601 15.601 0 0 0 8.593 8.402l12.899 5.175 3.307 8.852-9.439.438-9.828-9.827a15.595 15.595 0 0 0-11.103-4.599A15.603 15.603 0 0 0 5.93 40.797c-6.12 6.122-6.12 16.083 0 22.205a15.605 15.605 0 0 0 11.104 4.6c4.195 0 8.138-1.634 11.103-4.6a15.601 15.601 0 0 0 4.131-7.275l1.486 1.485a3.804 3.804 0 0 0 2.512 1.109l.188.008H98.66zM44.531 24.589c-1.657 4.126-6.359 6.139-10.486 4.485l-.004-.001-.001-.001a8.014 8.014 0 0 1-4.413-4.316 8.017 8.017 0 0 1-.069-6.173c1.656-4.127 6.362-6.139 10.49-4.483a8.018 8.018 0 0 1 4.415 4.316 8.026 8.026 0 0 1 .068 6.173zM22.738 57.602a8.017 8.017 0 0 1-5.705 2.363 8.013 8.013 0 0 1-5.704-2.363c-3.144-3.145-3.144-8.261 0-11.406a8.01 8.01 0 0 1 5.704-2.363c2.154 0 4.18.839 5.703 2.362l.001.001.001.002c3.144 3.145 3.144 8.26 0 11.404z"></path><path d="M52.451 63.696l4.342 11.627c7.613 18.752 18.242 18.792 18.242 18.792L62.033 63.696h-9.582z"></path></g><!----></svg>