<svg data-v-423bf9ae="" xmlns="http://www.w3.org/2000/svg" width="40" height="40" viewBox="0 0 40 40" class="iconLeft"><!----><!----><!----><g data-v-423bf9ae="" id="ee2c26a7-123a-4ea1-9ce0-8f6d02b953b9" fill="#22255B" transform="matrix(Infinity,0,0,Infinity,0,45)"><path d=""></path></g><defs data-v-423bf9ae=""><linearGradient data-v-423bf9ae="" gradientTransform="rotate(25)" id="7ea2652d-c03b-40ac-94ad-f535abaaaae7" x1="0%" y1="0%" x2="100%" y2="0%"><stop data-v-423bf9ae="" offset="0%" style="stop-color: rgb(81, 6, 255); stop-opacity: 1;"></stop><stop data-v-423bf9ae="" offset="100%" style="stop-color: rgb(97, 203, 242); stop-opacity: 1;"></stop></linearGradient></defs><g data-v-423bf9ae="" id="cbd262e1-f6be-448d-a657-990ac077185a" transform="matrix(1.0200604592108724,0,0,1.0200604592108724,-0.6630266991775713,-5.118054400908328)" stroke="none" fill="url(#7ea2652d-c03b-40ac-94ad-f535abaaaae7)"><path d="M98.66 58.328s-4.217-9.757-24.451-9.387l-18.121.841-5.5-12.867-.081-.168a3.807 3.807 0 0 0-2.007-1.874l-1.949-.782a15.604 15.604 0 0 0 5.067-6.659 15.599 15.599 0 0 0-.135-12.017 15.6 15.6 0 0 0-8.593-8.401c-8.036-3.223-17.196.691-20.418 8.727a15.6 15.6 0 0 0 .133 12.016 15.601 15.601 0 0 0 8.593 8.402l12.899 5.175 3.307 8.852-9.439.438-9.828-9.827a15.595 15.595 0 0 0-11.103-4.599A15.603 15.603 0 0 0 5.93 40.797c-6.12 6.122-6.12 16.083 0 22.205a15.605 15.605 0 0 0 11.104 4.6c4.195 0 8.138-1.634 11.103-4.6a15.601 15.601 0 0 0 4.131-7.275l1.486 1.485a3.804 3.804 0 0 0 2.512 1.109l.188.008H98.66zM44.531 24.589c-1.657 4.126-6.359 6.139-10.486 4.485l-.004-.001-.001-.001a8.014 8.014 0 0 1-4.413-4.316 8.017 8.017 0 0 1-.069-6.173c1.656-4.127 6.362-6.139 10.49-4.483a8.018 8.018 0 0 1 4.415 4.316 8.026 8.026 0 0 1 .068 6.173zM22.738 57.602a8.017 8.017 0 0 1-5.705 2.363 8.013 8.013 0 0 1-5.704-2.363c-3.144-3.145-3.144-8.261 0-11.406a8.01 8.01 0 0 1 5.704-2.363c2.154 0 4.18.839 5.703 2.362l.001.001.001.002c3.144 3.145 3.144 8.26 0 11.404z"></path><path d="M52.451 63.696l4.342 11.627c7.613 18.752 18.242 18.792 18.242 18.792L62.033 63.696h-9.582z"></path></g><!----></svg>