<svg data-v-423bf9ae="" xmlns="http://www.w3.org/2000/svg" viewBox="0 0 392 91" class="iconLeft"><!----><!----><!----><g data-v-423bf9ae="" id="fe26264d-db6e-48a9-b12e-a1170437e0cc" fill="#000000" transform="matrix(5.338077947597975,0,0,5.338077947597975,116.65663885058055,-16.76156229321323)"><path d="M5.24 7.92L5.24 7.92L5.24 7.92Q4.16 7.92 3.58 8.58L3.58 8.58L3.58 8.58Q3.01 9.24 3.01 10.44L3.01 10.44L3.01 10.44Q3.01 11.66 3.65 12.32L3.65 12.32L3.65 12.32Q4.28 12.98 5.36 12.98L5.36 12.98L5.36 12.98Q5.94 12.98 6.33 12.82L6.33 12.82L6.33 12.82Q6.73 12.67 7.10 12.47L7.10 12.47L7.10 12.47Q7.34 12.67 7.47 12.94L7.47 12.94L7.47 12.94Q7.60 13.22 7.60 13.58L7.60 13.58L7.60 13.58Q7.60 14.15 6.96 14.55L6.96 14.55L6.96 14.55Q6.33 14.95 5.03 14.95L5.03 14.95L5.03 14.95Q4.09 14.95 3.26 14.69L3.26 14.69L3.26 14.69Q2.44 14.42 1.82 13.87L1.82 13.87L1.82 13.87Q1.20 13.31 0.85 12.47L0.85 12.47L0.85 12.47Q0.49 11.62 0.49 10.44L0.49 10.44L0.49 10.44Q0.49 9.35 0.83 8.52L0.83 8.52L0.83 8.52Q1.18 7.69 1.77 7.11L1.77 7.11L1.77 7.11Q2.37 6.54 3.16 6.24L3.16 6.24L3.16 6.24Q3.96 5.95 4.87 5.95L4.87 5.95L4.87 5.95Q6.16 5.95 6.87 6.37L6.87 6.37L6.87 6.37Q7.57 6.79 7.57 7.45L7.57 7.45L7.57 7.45Q7.57 7.81 7.39 8.08L7.39 8.08L7.39 8.08Q7.21 8.34 6.97 8.50L6.97 8.50L6.97 8.50Q6.61 8.26 6.20 8.09L6.20 8.09L6.20 8.09Q5.78 7.92 5.24 7.92ZM11.10 9.91L11.10 14.69L11.10 14.69Q10.96 14.73 10.66 14.77L10.66 14.77L10.66 14.77Q10.36 14.81 10.04 14.81L10.04 14.81L10.04 14.81Q9.73 14.81 9.48 14.77L9.48 14.77L9.48 14.77Q9.24 14.73 9.07 14.60L9.07 14.60L9.07 14.60Q8.90 14.48 8.81 14.26L8.81 14.26L8.81 14.26Q8.72 14.04 8.72 13.69L8.72 13.69L8.72 9.49L8.72 9.49Q8.72 9.17 8.84 8.94L8.84 8.94L8.84 8.94Q8.96 8.71 9.18 8.53L9.18 8.53L9.18 8.53Q9.41 8.34 9.74 8.20L9.74 8.20L9.74 8.20Q10.07 8.05 10.44 7.94L10.44 7.94L10.44 7.94Q10.82 7.83 11.23 7.76L11.23 7.76L11.23 7.76Q11.63 7.70 12.04 7.70L12.04 7.70L12.04 7.70Q12.71 7.70 13.10 7.96L13.10 7.96L13.10 7.96Q13.50 8.22 13.50 8.81L13.50 8.81L13.50 8.81Q13.50 9.00 13.44 9.19L13.44 9.19L13.44 9.19Q13.38 9.38 13.30 9.53L13.30 9.53L13.30 9.53Q13.01 9.53 12.70 9.56L12.70 9.56L12.70 9.56Q12.39 9.59 12.10 9.65L12.10 9.65L12.10 9.65Q11.80 9.70 11.54 9.77L11.54 9.77L11.54 9.77Q11.28 9.83 11.10 9.91L11.10 9.91ZM21.52 11.30L21.52 11.30L21.52 11.30Q21.52 12.17 21.25 12.85L21.25 12.85L21.25 12.85Q20.99 13.52 20.50 13.99L20.50 13.99L20.50 13.99Q20.02 14.45 19.35 14.69L19.35 14.69L19.35 14.69Q18.68 14.92 17.85 14.92L17.85 14.92L17.85 14.92Q17.02 14.92 16.35 14.67L16.35 14.67L16.35 14.67Q15.68 14.42 15.20 13.95L15.20 13.95L15.20 13.95Q14.71 13.48 14.45 12.81L14.45 12.81L14.45 12.81Q14.18 12.14 14.18 11.30L14.18 11.30L14.18 11.30Q14.18 10.47 14.45 9.80L14.45 9.80L14.45 9.80Q14.71 9.13 15.20 8.66L15.20 8.66L15.20 8.66Q15.68 8.19 16.35 7.94L16.35 7.94L16.35 7.94Q17.02 7.69 17.85 7.69L17.85 7.69L17.85 7.69Q18.68 7.69 19.35 7.95L19.35 7.95L19.35 7.95Q20.02 8.20 20.50 8.67L20.50 8.67L20.50 8.67Q20.99 9.14 21.25 9.81L21.25 9.81L21.25 9.81Q21.52 10.49 21.52 11.30ZM16.62 11.30L16.62 11.30L16.62 11.30Q16.62 12.15 16.95 12.61L16.95 12.61L16.95 12.61Q17.28 13.06 17.86 13.06L17.86 13.06L17.86 13.06Q18.45 13.06 18.77 12.60L18.77 12.60L18.77 12.60Q19.08 12.14 19.08 11.30L19.08 11.30L19.08 11.30Q19.08 10.46 18.76 10.00L18.76 10.00L18.76 10.00Q18.44 9.55 17.85 9.55L17.85 9.55L17.85 9.55Q17.26 9.55 16.94 10.00L16.94 10.00L16.94 10.00Q16.62 10.46 16.62 11.30ZM25.80 7.69L25.80 7.69L25.80 7.69Q26.64 7.69 27.36 7.90L27.36 7.90L27.36 7.90Q28.08 8.12 28.60 8.57L28.60 8.57L28.60 8.57Q29.12 9.02 29.41 9.70L29.41 9.70L29.41 9.70Q29.71 10.37 29.71 11.31L29.71 11.31L29.71 11.31Q29.71 12.21 29.46 12.88L29.46 12.88L29.46 12.88Q29.20 13.55 28.74 14.01L28.74 14.01L28.74 14.01Q28.28 14.46 27.63 14.69L27.63 14.69L27.63 14.69Q26.98 14.91 26.18 14.91L26.18 14.91L26.18 14.91Q25.58 14.91 25.06 14.73L25.06 14.73L25.06 17.05L25.06 17.05Q24.92 17.09 24.61 17.14L24.61 17.14L24.61 17.14Q24.30 17.19 23.98 17.19L23.98 17.19L23.98 17.19Q23.67 17.19 23.43 17.15L23.43 17.15L23.43 17.15Q23.18 17.11 23.02 16.98L23.02 16.98L23.02 16.98Q22.85 16.86 22.76 16.64L22.76 16.64L22.76 16.64Q22.68 16.42 22.68 16.07L22.68 16.07L22.68 9.35L22.68 9.35Q22.68 8.97 22.84 8.74L22.84 8.74L22.84 8.74Q23.00 8.50 23.28 8.30L23.28 8.30L23.28 8.30Q23.72 8.02 24.36 7.85L24.36 7.85L24.36 7.85Q25.00 7.69 25.80 7.69ZM25.83 13.03L25.83 13.03L25.83 13.03Q27.27 13.03 27.27 11.31L27.27 11.31L27.27 11.31Q27.27 10.42 26.92 9.98L26.92 9.98L26.92 9.98Q26.56 9.55 25.89 9.55L25.89 9.55L25.89 9.55Q25.62 9.55 25.41 9.61L25.41 9.61L25.41 9.61Q25.20 9.67 25.05 9.76L25.05 9.76L25.05 12.84L25.05 12.84Q25.21 12.92 25.41 12.98L25.41 12.98L25.41 12.98Q25.61 13.03 25.83 13.03ZM33.99 7.69L33.99 7.69L33.99 7.69Q34.83 7.69 35.55 7.90L35.55 7.90L35.55 7.90Q36.27 8.12 36.79 8.57L36.79 8.57L36.79 8.57Q37.31 9.02 37.60 9.70L37.60 9.70L37.60 9.70Q37.90 10.37 37.90 11.31L37.90 11.31L37.90 11.31Q37.90 12.21 37.65 12.88L37.65 12.88L37.65 12.88Q37.39 13.55 36.93 14.01L36.93 14.01L36.93 14.01Q36.47 14.46 35.82 14.69L35.82 14.69L35.82 14.69Q35.17 14.91 34.37 14.91L34.37 14.91L34.37 14.91Q33.77 14.91 33.25 14.73L33.25 14.73L33.25 17.05L33.25 17.05Q33.11 17.09 32.80 17.14L32.80 17.14L32.80 17.14Q32.49 17.19 32.17 17.19L32.17 17.19L32.17 17.19Q31.86 17.19 31.62 17.15L31.62 17.15L31.62 17.15Q31.37 17.11 31.21 16.98L31.21 16.98L31.21 16.98Q31.04 16.86 30.95 16.64L30.95 16.64L30.95 16.64Q30.87 16.42 30.87 16.07L30.87 16.07L30.87 9.35L30.87 9.35Q30.87 8.97 31.03 8.74L31.03 8.74L31.03 8.74Q31.19 8.50 31.47 8.30L31.47 8.30L31.47 8.30Q31.91 8.02 32.55 7.85L32.55 7.85L32.55 7.85Q33.19 7.69 33.99 7.69ZM34.02 13.03L34.02 13.03L34.02 13.03Q35.46 13.03 35.46 11.31L35.46 11.31L35.46 11.31Q35.46 10.42 35.11 9.98L35.11 9.98L35.11 9.98Q34.75 9.55 34.08 9.55L34.08 9.55L34.08 9.55Q33.81 9.55 33.60 9.61L33.60 9.61L33.60 9.61Q33.39 9.67 33.24 9.76L33.24 9.76L33.24 12.84L33.24 12.84Q33.40 12.92 33.60 12.98L33.60 12.98L33.60 12.98Q33.80 13.03 34.02 13.03ZM42.66 14.92L42.66 14.92L42.66 14.92Q41.83 14.92 41.13 14.69L41.13 14.69L41.13 14.69Q40.42 14.46 39.89 14.00L39.89 14.00L39.89 14.00Q39.37 13.54 39.07 12.84L39.07 12.84L39.07 12.84Q38.77 12.14 38.77 11.20L38.77 11.20L38.77 11.20Q38.77 10.28 39.07 9.61L39.07 9.61L39.07 9.61Q39.37 8.95 39.86 8.52L39.86 8.52L39.86 8.52Q40.35 8.09 40.98 7.89L40.98 7.89L40.98 7.89Q41.61 7.69 42.27 7.69L42.27 7.69L42.27 7.69Q43.01 7.69 43.62 7.91L43.62 7.91L43.62 7.91Q44.23 8.13 44.67 8.53L44.67 8.53L44.67 8.53Q45.11 8.92 45.35 9.46L45.35 9.46L45.35 9.46Q45.60 10.01 45.60 10.65L45.60 10.65L45.60 10.65Q45.60 11.13 45.33 11.38L45.33 11.38L45.33 11.38Q45.07 11.63 44.59 11.70L44.59 11.70L41.13 12.22L41.13 12.22Q41.29 12.68 41.76 12.92L41.76 12.92L41.76 12.92Q42.24 13.15 42.85 13.15L42.85 13.15L42.85 13.15Q43.43 13.15 43.94 13.00L43.94 13.00L43.94 13.00Q44.45 12.85 44.77 12.66L44.77 12.66L44.77 12.66Q45.00 12.80 45.15 13.05L45.15 13.05L45.15 13.05Q45.30 13.30 45.30 13.58L45.30 13.58L45.30 13.58Q45.30 14.21 44.72 14.52L44.72 14.52L44.72 14.52Q44.27 14.76 43.71 14.84L43.71 14.84L43.71 14.84Q43.15 14.92 42.66 14.92ZM42.27 9.42L42.27 9.42L42.27 9.42Q41.93 9.42 41.69 9.53L41.69 9.53L41.69 9.53Q41.44 9.65 41.29 9.82L41.29 9.82L41.29 9.82Q41.13 10.00 41.05 10.21L41.05 10.21L41.05 10.21Q40.98 10.43 40.96 10.65L40.96 10.65L43.36 10.26L43.36 10.26Q43.32 9.98 43.05 9.70L43.05 9.70L43.05 9.70Q42.78 9.42 42.27 9.42ZM49.13 9.91L49.13 14.69L49.13 14.69Q48.99 14.73 48.69 14.77L48.69 14.77L48.69 14.77Q48.38 14.81 48.06 14.81L48.06 14.81L48.06 14.81Q47.75 14.81 47.51 14.77L47.51 14.77L47.51 14.77Q47.26 14.73 47.10 14.60L47.10 14.60L47.10 14.60Q46.93 14.48 46.84 14.26L46.84 14.26L46.84 14.26Q46.75 14.04 46.75 13.69L46.75 13.69L46.75 9.49L46.75 9.49Q46.75 9.17 46.87 8.94L46.87 8.94L46.87 8.94Q46.98 8.71 47.21 8.53L47.21 8.53L47.21 8.53Q47.43 8.34 47.76 8.20L47.76 8.20L47.76 8.20Q48.09 8.05 48.47 7.94L48.47 7.94L48.47 7.94Q48.85 7.83 49.25 7.76L49.25 7.76L49.25 7.76Q49.66 7.70 50.06 7.70L50.06 7.70L50.06 7.70Q50.74 7.70 51.13 7.96L51.13 7.96L51.13 7.96Q51.52 8.22 51.52 8.81L51.52 8.81L51.52 8.81Q51.52 9.00 51.46 9.19L51.46 9.19L51.46 9.19Q51.41 9.38 51.32 9.53L51.32 9.53L51.32 9.53Q51.03 9.53 50.72 9.56L50.72 9.56L50.72 9.56Q50.41 9.59 50.12 9.65L50.12 9.65L50.12 9.65Q49.83 9.70 49.57 9.77L49.57 9.77L49.57 9.77Q49.31 9.83 49.13 9.91L49.13 9.91Z"></path></g><defs data-v-423bf9ae=""><linearGradient data-v-423bf9ae="" gradientTransform="rotate(25)" id="ae1334d7-e831-4397-bbb3-755ad7b9c60f" x1="0%" y1="0%" x2="100%" y2="0%"><stop data-v-423bf9ae="" offset="0%" style="stop-color: rgb(233, 13, 202); stop-opacity: 1;"></stop><stop data-v-423bf9ae="" offset="100%" style="stop-color: rgb(21, 54, 241); stop-opacity: 1;"></stop></linearGradient></defs><g data-v-423bf9ae="" id="e33df337-22c5-4a47-a2a5-2e88ae7ba785" transform="matrix(1.0200604592108724,0,0,1.0200604592108724,-0.6630266991775713,-5.118054400908328)" stroke="none" fill="url(#ae1334d7-e831-4397-bbb3-755ad7b9c60f)"><path d="M98.66 58.328s-4.217-9.757-24.451-9.387l-18.121.841-5.5-12.867-.081-.168a3.807 3.807 0 0 0-2.007-1.874l-1.949-.782a15.604 15.604 0 0 0 5.067-6.659 15.599 15.599 0 0 0-.135-12.017 15.6 15.6 0 0 0-8.593-8.401c-8.036-3.223-17.196.691-20.418 8.727a15.6 15.6 0 0 0 .133 12.016 15.601 15.601 0 0 0 8.593 8.402l12.899 5.175 3.307 8.852-9.439.438-9.828-9.827a15.595 15.595 0 0 0-11.103-4.599A15.603 15.603 0 0 0 5.93 40.797c-6.12 6.122-6.12 16.083 0 22.205a15.605 15.605 0 0 0 11.104 4.6c4.195 0 8.138-1.634 11.103-4.6a15.601 15.601 0 0 0 4.131-7.275l1.486 1.485a3.804 3.804 0 0 0 2.512 1.109l.188.008H98.66zM44.531 24.589c-1.657 4.126-6.359 6.139-10.486 4.485l-.004-.001-.001-.001a8.014 8.014 0 0 1-4.413-4.316 8.017 8.017 0 0 1-.069-6.173c1.656-4.127 6.362-6.139 10.49-4.483a8.018 8.018 0 0 1 4.415 4.316 8.026 8.026 0 0 1 .068 6.173zM22.738 57.602a8.017 8.017 0 0 1-5.705 2.363 8.013 8.013 0 0 1-5.704-2.363c-3.144-3.145-3.144-8.261 0-11.406a8.01 8.01 0 0 1 5.704-2.363c2.154 0 4.18.839 5.703 2.362l.001.001.001.002c3.144 3.145 3.144 8.26 0 11.404z"></path><path d="M52.451 63.696l4.342 11.627c7.613 18.752 18.242 18.792 18.242 18.792L62.033 63.696h-9.582z"></path></g><!----></svg>