<svg data-v-423bf9ae="" xmlns="http://www.w3.org/2000/svg" viewBox="0 0 425 91" class="iconLeft"><!----><!----><!----><g data-v-423bf9ae="" id="efea4e89-a6eb-42c6-88bc-84f9fb5058de" fill="#22255B" transform="matrix(4.777069904097269,0,0,4.777069904097269,117.98247622651297,12.80254634393848)"><path d="M7.55 6.16C7.29 6.85 6.61 7.36 5.66 7.36C4.47 7.36 3.91 6.58 3.91 5.60C3.91 4.61 4.47 3.81 5.66 3.81C6.66 3.81 7.14 4.31 7.55 4.72C7.55 4.73 7.55 1.13 7.55 1.13C6.85 0.71 6.01 0.46 5.11 0.46C2.32 0.46 0.27 2.76 0.27 5.60C0.27 8.44 2.32 10.72 5.11 10.72C6.01 10.72 6.85 10.49 7.55 10.07C7.55 10.11 7.55 6.16 7.55 6.16ZM13.33 3.60L13.16 3.60C11.91 3.60 11.44 4.16 11.17 4.47L11.17 3.74L8.23 3.74L8.23 10.50L11.17 10.50L11.17 7.28C11.17 6.85 11.62 6.34 12.33 6.34C12.50 6.34 12.71 6.36 13.33 6.50ZM13.85 7.13C13.85 9.09 15.48 10.65 17.53 10.65C19.57 10.65 21.22 9.09 21.22 7.13C21.22 5.17 19.57 3.58 17.53 3.58C15.48 3.58 13.85 5.17 13.85 7.13ZM16.79 7.13C16.79 6.61 17.01 6.17 17.53 6.17C18.03 6.17 18.28 6.61 18.28 7.13C18.28 7.66 18.03 8.06 17.53 8.06C17.01 8.06 16.79 7.66 16.79 7.13ZM24.77 3.75L21.85 3.75L21.85 13.02L24.77 13.02L24.77 10.05C25.19 10.47 25.76 10.68 26.33 10.68C27.94 10.68 29.25 9.11 29.25 7.13C29.25 5.12 27.94 3.64 26.33 3.64C25.76 3.64 25.17 3.79 24.77 4.23ZM24.75 7.13C24.75 6.58 24.98 6.17 25.49 6.17C26.00 6.17 26.24 6.58 26.24 7.13C26.24 7.66 26.00 8.09 25.49 8.09C24.98 8.09 24.75 7.66 24.75 7.13ZM32.65 7.85C31.53 7.85 30.44 7.01 29.95 6.52L29.95 9.70C30.87 10.63 32.23 10.72 33.01 10.72C35.25 10.72 37.21 9.51 37.21 6.99C37.21 5.92 36.62 5.05 35.81 4.70C34.75 4.23 33.54 4.30 33.54 3.77C33.54 3.47 34.08 3.43 34.22 3.43C34.97 3.43 35.84 3.61 36.86 4.34L36.86 1.50C35.76 0.62 34.66 0.49 33.59 0.49C32.03 0.49 29.78 1.23 29.78 3.77C29.78 7.15 33.46 6.52 33.46 7.43C33.46 7.66 33.29 7.85 32.65 7.85ZM43.13 7.49C42.81 7.87 42.32 8.05 41.76 8.05C41.06 8.05 40.74 7.64 40.74 7.11C40.74 6.59 41.06 6.17 41.76 6.17C42.36 6.17 42.73 6.33 43.13 6.52C43.13 6.52 43.13 4.06 43.13 4.06C42.63 3.75 42 3.58 41.36 3.58C39.30 3.58 37.79 5.17 37.79 7.11C37.79 9.07 39.30 10.64 41.36 10.64C42 10.64 42.63 10.47 43.13 10.19C43.13 10.22 43.13 7.49 43.13 7.49ZM43.75 7.13C43.75 9.09 45.39 10.65 47.43 10.65C49.48 10.65 51.13 9.09 51.13 7.13C51.13 5.17 49.48 3.58 47.43 3.58C45.39 3.58 43.75 5.17 43.75 7.13ZM46.69 7.13C46.69 6.61 46.91 6.17 47.43 6.17C47.94 6.17 48.19 6.61 48.19 7.13C48.19 7.66 47.94 8.06 47.43 8.06C46.91 8.06 46.69 7.66 46.69 7.13ZM56.85 3.60L56.69 3.60C55.44 3.60 54.96 4.16 54.70 4.47L54.70 3.74L51.76 3.74L51.76 10.50L54.70 10.50L54.70 7.28C54.70 6.85 55.15 6.34 55.86 6.34C56.03 6.34 56.24 6.36 56.85 6.50ZM61.47 8.48C60.70 8.48 60.24 8.09 60.06 7.60L64.26 7.60L64.26 7.10C64.26 5.14 62.97 3.60 61.04 3.60C58.93 3.60 57.37 5.15 57.37 7.10C57.37 9.04 58.93 10.61 61.04 10.61C61.80 10.61 62.76 10.42 63.34 10.08L63.34 7.92C62.89 8.26 62.12 8.48 61.47 8.48ZM60.12 6.19C60.26 5.88 60.52 5.66 61.04 5.66C61.38 5.66 61.67 5.92 61.77 6.19Z"></path></g><defs data-v-423bf9ae=""><linearGradient data-v-423bf9ae="" gradientTransform="rotate(25)" id="a5ac5b44-28f6-4053-ab09-5c1629c2783a" x1="0%" y1="0%" x2="100%" y2="0%"><stop data-v-423bf9ae="" offset="0%" style="stop-color: rgb(81, 6, 255); stop-opacity: 1;"></stop><stop data-v-423bf9ae="" offset="100%" style="stop-color: rgb(97, 203, 242); stop-opacity: 1;"></stop></linearGradient></defs><g data-v-423bf9ae="" id="a8670648-b225-4e9d-a0c8-eb7268773495" transform="matrix(1.0200604592108724,0,0,1.0200604592108724,-0.6630266991775713,-5.118054400908328)" stroke="none" fill="url(#a5ac5b44-28f6-4053-ab09-5c1629c2783a)"><path d="M98.66 58.328s-4.217-9.757-24.451-9.387l-18.121.841-5.5-12.867-.081-.168a3.807 3.807 0 0 0-2.007-1.874l-1.949-.782a15.604 15.604 0 0 0 5.067-6.659 15.599 15.599 0 0 0-.135-12.017 15.6 15.6 0 0 0-8.593-8.401c-8.036-3.223-17.196.691-20.418 8.727a15.6 15.6 0 0 0 .133 12.016 15.601 15.601 0 0 0 8.593 8.402l12.899 5.175 3.307 8.852-9.439.438-9.828-9.827a15.595 15.595 0 0 0-11.103-4.599A15.603 15.603 0 0 0 5.93 40.797c-6.12 6.122-6.12 16.083 0 22.205a15.605 15.605 0 0 0 11.104 4.6c4.195 0 8.138-1.634 11.103-4.6a15.601 15.601 0 0 0 4.131-7.275l1.486 1.485a3.804 3.804 0 0 0 2.512 1.109l.188.008H98.66zM44.531 24.589c-1.657 4.126-6.359 6.139-10.486 4.485l-.004-.001-.001-.001a8.014 8.014 0 0 1-4.413-4.316 8.017 8.017 0 0 1-.069-6.173c1.656-4.127 6.362-6.139 10.49-4.483a8.018 8.018 0 0 1 4.415 4.316 8.026 8.026 0 0 1 .068 6.173zM22.738 57.602a8.017 8.017 0 0 1-5.705 2.363 8.013 8.013 0 0 1-5.704-2.363c-3.144-3.145-3.144-8.261 0-11.406a8.01 8.01 0 0 1 5.704-2.363c2.154 0 4.18.839 5.703 2.362l.001.001.001.002c3.144 3.145 3.144 8.26 0 11.404z"></path><path d="M52.451 63.696l4.342 11.627c7.613 18.752 18.242 18.792 18.242 18.792L62.033 63.696h-9.582z"></path></g><!----></svg>